<svg xmlns="http://www.w3.org/2000/svg" width="194" height="44" viewBox="0 0 194 44" fill="none"><g clip-path="url(#clip0_273_1934)"><path fill-rule="evenodd" clip-rule="evenodd" d="M14.4203 27.0625C17.8874 24.9065 21.0876 24.8826 24.0185 26.991C25.744 29.0098 28.0079 30.0345 30.8068 30.0659C31.2586 30.0704 31.7227 30.0496 32.2012 30.0031C32.9968 29.9403 33.3151 30.5636 33.1576 31.873C33.1206 32.1766 33.0581 32.5174 32.9701 32.8953C31.9833 38.3693 28.8278 41.3893 23.5009 41.9556C23.539 42.3812 23.6073 42.7696 23.708 43.1231C24.8048 43.7069 25.8237 44 26.7652 44C27.9092 44 28.941 43.565 29.8617 42.6975C32.5193 39.7914 34.32 36.6839 35.2603 33.3768C37.3414 26.0619 34.7844 13.5524 24.3819 18.0424C23.3606 18.7065 22.4041 19.0421 21.5118 19.0494C21.3386 19.0512 21.1679 19.0401 20.9999 19.0174C20.8313 19.0401 20.6612 19.0512 20.488 19.0494C19.5957 19.0419 18.6386 18.7063 17.6185 18.0424C7.21477 13.5524 4.65842 26.0619 6.73951 33.3768C7.68034 36.6841 9.48047 39.7914 12.1387 42.6975C13.0582 43.565 14.0912 44 15.2352 44C16.3892 44 17.6602 43.5605 19.0486 42.6812L19.0654 42.6731C19.4649 42.508 19.8634 42.3963 20.2605 42.3383C20.3873 42.0603 20.4997 41.765 20.598 41.4511C21.1805 39.024 20.7793 37.1157 19.3931 35.726C17.7 34.4362 16.718 33.0453 16.4471 31.5533C16.2782 32.9174 16.7372 34.1827 17.8246 35.3514C20.2821 39.081 20.0173 41.5463 17.0296 42.7476C13.2818 43.514 10.9698 41.408 10.0942 36.4318C9.70366 32.5999 11.1461 29.4761 14.4203 27.0625Z" fill="#D32300"></path><path fill-rule="evenodd" clip-rule="evenodd" d="M23.5877 30.6276C22.9288 30.6544 22.4146 31.2125 22.4413 31.8754C22.4668 32.5371 23.0238 33.0535 23.6827 33.0267C24.3427 32.9998 24.857 32.4429 24.8303 31.78C24.8038 31.1172 24.2478 30.6019 23.5877 30.6276Z" fill="#D32300"></path><path fill-rule="evenodd" clip-rule="evenodd" d="M29.6743 0.469909C31.8246 1.89915 32.194 6.15785 30.5011 9.97922C28.8059 13.8012 25.6908 15.7415 23.5402 14.3122C21.3905 12.883 21.0205 8.6243 22.7146 4.80293C24.4076 0.980962 27.5249 -0.959329 29.6743 0.469909Z" fill="#D32300"></path><path fill-rule="evenodd" clip-rule="evenodd" d="M41.6472 8.79359C42.7253 11.0828 41.2511 14.5936 38.3526 16.6346C35.4552 18.6745 32.2314 18.4726 31.1521 16.1834C30.0728 13.8936 31.5482 10.3828 34.4455 8.34235C37.3439 6.30211 40.5691 6.50379 41.6472 8.79359Z" fill="#D32300"></path><path fill-rule="evenodd" clip-rule="evenodd" d="M12.3255 0.791006C10.1756 2.22024 9.80556 6.47835 11.4998 10.2997C13.1935 14.1217 16.3102 16.062 18.46 14.6327C20.6099 13.2035 20.9793 8.94559 19.2856 5.12343C17.5916 1.30146 14.4753 -0.638233 12.3255 0.791006Z" fill="#D32300"></path><path fill-rule="evenodd" clip-rule="evenodd" d="M0.353174 9.11389C-0.725362 11.4033 0.74929 14.9147 3.64715 16.9549C6.54462 18.9954 9.76895 18.7929 10.8477 16.5037C11.9264 14.2139 10.4516 10.7031 7.55371 8.66265C4.65644 6.62241 1.43191 6.82409 0.353174 9.11389Z" fill="#D32300"></path><path fill-rule="evenodd" clip-rule="evenodd" d="M32.2336 30.4438C31.9881 30.4682 31.7473 30.4845 31.5134 30.495L31.4809 30.4974C31.6721 30.865 31.8783 31.1347 32.0993 31.3045C32.2961 31.4558 32.5116 31.5219 32.7488 31.5056C32.7756 31.1033 32.7407 30.8102 32.6458 30.6254C32.5763 30.4891 32.4384 30.4287 32.2336 30.4438Z" fill="#D32300"></path></g><path d="M61.12 31.848C60.992 32.1893 60.7467 32.4667 60.384 32.68C60.0427 32.8933 59.648 33.064 59.2 33.192C58.7733 33.32 58.3253 33.4053 57.856 33.448C57.3867 33.4907 56.9707 33.5013 56.608 33.48C56.3733 33.48 56.128 33.4587 55.872 33.416C55.6373 33.3733 55.4347 33.2667 55.264 33.096C55.072 32.904 54.9013 32.5947 54.752 32.168C54.624 31.72 54.5067 31.24 54.4 30.728C54.3147 30.216 54.24 29.7253 54.176 29.256C54.112 28.7653 54.0693 28.392 54.048 28.136C53.8133 25.96 53.6747 23.7947 53.632 21.64C53.6107 19.4853 53.6533 17.3093 53.76 15.112C53.7813 14.664 53.792 14.216 53.792 13.768C53.792 13.2987 53.8453 12.8507 53.952 12.424C53.9947 12.2107 54.0587 12.008 54.144 11.816C54.2293 11.6027 54.3467 11.4107 54.496 11.24C54.624 11.112 54.848 10.984 55.168 10.856C55.488 10.7067 55.8293 10.5787 56.192 10.472C56.5547 10.344 56.9067 10.2373 57.248 10.152C57.5893 10.0667 57.8453 10.0027 58.016 9.96C58.912 9.74667 59.808 9.59733 60.704 9.512C61.6213 9.42667 62.5387 9.384 63.456 9.384C63.6693 9.384 64 9.39467 64.448 9.416C64.896 9.416 65.3653 9.43733 65.856 9.48C66.368 9.52267 66.848 9.576 67.296 9.64C67.744 9.704 68.064 9.78933 68.256 9.896C68.576 10.0667 68.832 10.3227 69.024 10.664C69.216 10.984 69.3547 11.3467 69.44 11.752C69.5253 12.136 69.5573 12.5413 69.536 12.968C69.5147 13.3947 69.4613 13.7787 69.376 14.12C69.2053 14.696 68.896 15.1653 68.448 15.528C68 15.8693 67.4773 16.04 66.88 16.04C66.4533 16.04 65.9093 16.0293 65.248 16.008C64.608 15.9653 63.9467 15.9547 63.264 15.976C62.6027 15.9973 61.984 16.0827 61.408 16.232C60.8533 16.36 60.448 16.584 60.192 16.904C60.0213 17.1173 59.936 17.4267 59.936 17.832C59.936 18.2373 60 18.5573 60.128 18.792C60.192 18.8987 60.2987 18.984 60.448 19.048C60.5973 19.0907 60.7573 19.1227 60.928 19.144C61.12 19.1653 61.3013 19.176 61.472 19.176C61.6427 19.176 61.792 19.176 61.92 19.176C62.4107 19.1547 62.912 19.1227 63.424 19.08C63.936 19.0373 64.4373 19.0267 64.928 19.048C65.1627 19.0693 65.3973 19.1013 65.632 19.144C65.8667 19.1867 66.1013 19.2613 66.336 19.368C66.5707 19.4747 66.7733 19.6453 66.944 19.88C67.0933 20.136 67.1893 20.4133 67.232 20.712C67.2747 20.9893 67.3067 21.2773 67.328 21.576C67.328 21.768 67.3173 22.0133 67.296 22.312C67.296 22.5893 67.264 22.8773 67.2 23.176C67.1573 23.4747 67.0827 23.752 66.976 24.008C66.8907 24.264 66.7733 24.456 66.624 24.584C66.3893 24.776 66.1013 24.904 65.76 24.968C65.44 25.0107 65.1307 25.032 64.832 25.032C64.64 25.032 64.3627 25.0213 64 25C63.6587 24.9787 63.2853 24.9573 62.88 24.936C62.496 24.9147 62.1333 24.9147 61.792 24.936C61.4507 24.9573 61.2053 25.0213 61.056 25.128C60.928 25.2347 60.8427 25.3733 60.8 25.544C60.7573 25.7147 60.7253 25.8853 60.704 26.056C60.6613 26.76 60.6933 27.464 60.8 28.168C60.9067 28.872 61.024 29.5653 61.152 30.248C61.1947 30.504 61.2267 30.7707 61.248 31.048C61.2693 31.3253 61.2267 31.592 61.12 31.848ZM83.3158 32.072C82.3771 32.456 81.3851 32.68 80.3398 32.744C79.3158 32.808 78.3131 32.6907 77.3318 32.392C76.3931 32.1147 75.5504 31.688 74.8038 31.112C74.3984 30.8133 74.0251 30.4613 73.6838 30.056C73.3424 29.6507 73.0331 29.2347 72.7558 28.808C72.1371 27.784 71.6891 26.6747 71.4118 25.48C71.1344 24.264 70.9531 23.0587 70.8678 21.864C70.8038 20.6907 70.8251 19.5173 70.9318 18.344C71.0598 17.1493 71.3371 16.008 71.7638 14.92C72.0198 14.2587 72.3398 13.6293 72.7238 13.032C73.1291 12.4347 73.5984 11.912 74.1318 11.464C74.5584 11.1013 75.0171 10.8027 75.5078 10.568C75.9984 10.3333 76.5104 10.152 77.0438 10.024C77.8118 9.81067 78.5904 9.69333 79.3798 9.672C80.1904 9.62933 80.9798 9.66133 81.7478 9.768C82.2384 9.832 82.7291 9.928 83.2198 10.056C83.7104 10.1627 84.1798 10.3227 84.6278 10.536C85.2891 10.856 85.8651 11.304 86.3558 11.88C86.8678 12.456 87.2944 13.0747 87.6358 13.736C88.0411 14.5467 88.3504 15.4 88.5638 16.296C88.7984 17.192 88.9584 18.0987 89.0438 19.016C89.1718 20.424 89.1398 21.864 88.9478 23.336C88.7771 24.7867 88.4038 26.1627 87.8278 27.464C87.5931 28.0187 87.3051 28.5627 86.9638 29.096C86.6224 29.608 86.2278 30.0773 85.7798 30.504C85.0544 31.208 84.2331 31.7307 83.3158 32.072ZM79.1238 25.96C79.4864 26.3013 79.9131 26.472 80.4038 26.472C80.8944 26.472 81.3211 26.312 81.6838 25.992C82.0038 25.7147 82.2598 25.2987 82.4518 24.744C82.6438 24.1893 82.7824 23.592 82.8678 22.952C82.9531 22.2907 82.9958 21.6507 82.9958 21.032C83.0171 20.392 83.0064 19.8587 82.9638 19.432C82.9211 18.8773 82.8038 18.3333 82.6118 17.8C82.4198 17.2453 82.1424 16.7653 81.7798 16.36C81.5878 16.1467 81.3638 15.9653 81.1078 15.816C80.8518 15.6667 80.5851 15.6027 80.3078 15.624C79.9878 15.6453 79.6998 15.7733 79.4438 16.008C79.1878 16.2213 78.9638 16.4987 78.7718 16.84C78.5798 17.16 78.4198 17.5013 78.2917 17.864C78.1851 18.2267 78.0998 18.568 78.0358 18.888C77.8651 19.6347 77.7798 20.392 77.7798 21.16C77.7798 21.928 77.8438 22.6853 77.9718 23.432C78.0571 23.88 78.1851 24.3387 78.3558 24.808C78.5264 25.2773 78.7824 25.6613 79.1238 25.96ZM103.535 32.072C102.596 32.456 101.604 32.68 100.559 32.744C99.5345 32.808 98.5318 32.6907 97.5505 32.392C96.6118 32.1147 95.7692 31.688 95.0225 31.112C94.6172 30.8133 94.2438 30.4613 93.9025 30.056C93.5612 29.6507 93.2518 29.2347 92.9745 28.808C92.3558 27.784 91.9078 26.6747 91.6305 25.48C91.3532 24.264 91.1718 23.0587 91.0865 21.864C91.0225 20.6907 91.0438 19.5173 91.1505 18.344C91.2785 17.1493 91.5558 16.008 91.9825 14.92C92.2385 14.2587 92.5585 13.6293 92.9425 13.032C93.3478 12.4347 93.8172 11.912 94.3505 11.464C94.7772 11.1013 95.2358 10.8027 95.7265 10.568C96.2172 10.3333 96.7292 10.152 97.2625 10.024C98.0305 9.81067 98.8092 9.69333 99.5985 9.672C100.409 9.62933 101.199 9.66133 101.967 9.768C102.457 9.832 102.948 9.928 103.439 10.056C103.929 10.1627 104.399 10.3227 104.847 10.536C105.508 10.856 106.084 11.304 106.575 11.88C107.087 12.456 107.513 13.0747 107.855 13.736C108.26 14.5467 108.569 15.4 108.783 16.296C109.017 17.192 109.177 18.0987 109.263 19.016C109.391 20.424 109.359 21.864 109.167 23.336C108.996 24.7867 108.623 26.1627 108.047 27.464C107.812 28.0187 107.524 28.5627 107.183 29.096C106.841 29.608 106.447 30.0773 105.999 30.504C105.273 31.208 104.452 31.7307 103.535 32.072ZM99.3425 25.96C99.7052 26.3013 100.132 26.472 100.623 26.472C101.113 26.472 101.54 26.312 101.903 25.992C102.223 25.7147 102.479 25.2987 102.671 24.744C102.863 24.1893 103.001 23.592 103.087 22.952C103.172 22.2907 103.215 21.6507 103.215 21.032C103.236 20.392 103.225 19.8587 103.183 19.432C103.14 18.8773 103.023 18.3333 102.831 17.8C102.639 17.2453 102.361 16.7653 101.999 16.36C101.807 16.1467 101.583 15.9653 101.327 15.816C101.071 15.6667 100.804 15.6027 100.527 15.624C100.207 15.6453 99.9185 15.7733 99.6625 16.008C99.4065 16.2213 99.1825 16.4987 98.9905 16.84C98.7985 17.16 98.6385 17.5013 98.5105 17.864C98.4038 18.2267 98.3185 18.568 98.2545 18.888C98.0838 19.6347 97.9985 20.392 97.9985 21.16C97.9985 21.928 98.0625 22.6853 98.1905 23.432C98.2758 23.88 98.4038 24.3387 98.5745 24.808C98.7452 25.2773 99.0012 25.6613 99.3425 25.96ZM122.409 32.104C122.303 32.3173 122.121 32.5093 121.865 32.68C121.609 32.8293 121.321 32.9467 121.001 33.032C120.681 33.1387 120.351 33.2133 120.009 33.256C119.689 33.2987 119.412 33.32 119.177 33.32C118.921 33.32 118.612 33.288 118.249 33.224C117.887 33.1813 117.535 33.1067 117.193 33C116.852 32.8933 116.543 32.7653 116.265 32.616C115.988 32.4453 115.796 32.2427 115.689 32.008C115.561 31.752 115.487 31.4853 115.465 31.208C115.444 30.9307 115.423 30.6427 115.401 30.344C115.359 29.1707 115.348 28.008 115.369 26.856C115.412 25.704 115.465 24.5413 115.529 23.368C115.572 22.408 115.625 21.448 115.689 20.488C115.753 19.528 115.839 18.568 115.945 17.608C115.519 17.7147 115.071 17.8107 114.601 17.896C114.153 17.9813 113.705 18.0133 113.257 17.992C112.959 17.9707 112.671 17.928 112.393 17.864C112.116 17.7787 111.86 17.6507 111.625 17.48C111.391 17.288 111.209 17 111.081 16.616C110.975 16.232 110.9 15.8267 110.857 15.4C110.836 14.952 110.847 14.5147 110.889 14.088C110.932 13.64 110.985 13.2667 111.049 12.968C111.156 12.456 111.391 11.976 111.753 11.528C112.137 11.0587 112.575 10.7067 113.065 10.472C113.855 10.088 114.697 9.87466 115.593 9.832C116.489 9.78933 117.375 9.75733 118.249 9.736C118.719 9.736 119.177 9.72533 119.625 9.704C120.095 9.66133 120.564 9.64 121.033 9.64C121.908 9.64 122.793 9.672 123.689 9.736C124.244 9.77867 124.809 9.85333 125.385 9.96C125.961 10.0453 126.505 10.2053 127.017 10.44C127.487 10.6107 127.839 10.8667 128.073 11.208C128.244 11.4427 128.351 11.6987 128.393 11.976C128.457 12.232 128.511 12.488 128.553 12.744C128.596 13.2133 128.607 13.6827 128.585 14.152C128.564 14.6213 128.511 15.08 128.425 15.528C128.383 15.784 128.308 16.04 128.201 16.296C128.116 16.552 127.988 16.7867 127.817 17C127.561 17.3627 127.209 17.608 126.761 17.736C126.505 17.8213 126.228 17.8747 125.929 17.896C125.652 17.896 125.364 17.896 125.065 17.896C125.001 17.896 124.863 17.896 124.649 17.896C124.436 17.8747 124.212 17.864 123.977 17.864C123.743 17.8427 123.519 17.832 123.305 17.832C123.092 17.8107 122.953 17.8 122.889 17.8C122.868 18.0133 122.847 18.2267 122.825 18.44C122.825 18.632 122.825 18.8347 122.825 19.048C122.825 19.1547 122.793 19.2187 122.729 19.24C122.708 19.2613 122.708 19.304 122.729 19.368C122.772 19.4107 122.793 19.4533 122.793 19.496C122.729 20.84 122.676 22.1733 122.633 23.496C122.591 24.7973 122.569 26.12 122.569 27.464C122.569 27.6773 122.58 28.008 122.601 28.456C122.623 28.8827 122.633 29.3413 122.633 29.832C122.633 30.3013 122.612 30.7493 122.569 31.176C122.548 31.6027 122.495 31.912 122.409 32.104ZM135.877 33.672C135.621 33.6933 135.301 33.704 134.917 33.704C134.554 33.704 134.181 33.672 133.797 33.608C133.413 33.5653 133.05 33.48 132.709 33.352C132.389 33.2453 132.154 33.096 132.005 32.904C131.77 32.6267 131.653 32.328 131.653 32.008C131.632 31.9653 131.632 31.8373 131.653 31.624C131.696 31.4107 131.717 31.2827 131.717 31.24C131.76 30.8987 131.781 30.568 131.781 30.248C131.781 29.9067 131.77 29.5653 131.749 29.224C131.728 27.88 131.674 26.5467 131.589 25.224C131.504 23.9013 131.408 22.568 131.301 21.224C131.194 20.0293 131.077 18.8347 130.949 17.64C130.821 16.4453 130.629 15.2613 130.373 14.088C130.266 13.576 130.298 13.0427 130.469 12.488C130.64 11.9333 130.885 11.4427 131.205 11.016C131.482 10.6533 131.824 10.3547 132.229 10.12C132.656 9.864 133.093 9.68266 133.541 9.576C134.16 9.40533 134.789 9.29867 135.429 9.256C136.069 9.192 136.709 9.17067 137.349 9.192C138.032 9.21333 138.704 9.256 139.365 9.32C140.026 9.384 140.677 9.49067 141.317 9.64C141.893 9.768 142.448 9.98133 142.981 10.28C143.514 10.5573 143.984 10.9093 144.389 11.336C144.944 11.912 145.392 12.5733 145.733 13.32C146.074 14.0667 146.309 14.8347 146.437 15.624C146.586 16.5627 146.597 17.5227 146.469 18.504C146.341 19.464 146.085 20.3813 145.701 21.256C145.21 22.4293 144.464 23.4107 143.461 24.2C142.629 24.84 141.701 25.256 140.677 25.448C140.186 25.5547 139.674 25.576 139.141 25.512C138.608 25.448 138.096 25.3413 137.605 25.192C137.648 25.3627 137.712 25.6827 137.797 26.152C137.904 26.6213 138.01 27.1227 138.117 27.656C138.224 28.168 138.309 28.6693 138.373 29.16C138.458 29.6293 138.512 29.9493 138.533 30.12C138.597 30.568 138.608 31.0373 138.565 31.528C138.522 31.9973 138.362 32.4133 138.085 32.776C137.85 33.0747 137.52 33.288 137.093 33.416C136.666 33.544 136.261 33.6293 135.877 33.672ZM137.925 19.912C138.352 20.0187 138.789 19.9333 139.237 19.656C139.685 19.3573 140.005 19.016 140.197 18.632C140.389 18.2267 140.464 17.7787 140.421 17.288C140.378 16.776 140.24 16.3173 140.005 15.912C139.834 15.6133 139.61 15.3467 139.333 15.112C139.056 14.8773 138.757 14.7387 138.437 14.696C138.266 14.6533 138.096 14.6427 137.925 14.664C137.754 14.6853 137.605 14.7493 137.477 14.856C137.349 14.9413 137.253 15.0907 137.189 15.304C137.125 15.496 137.072 15.7093 137.029 15.944C137.008 16.1787 136.997 16.4133 136.997 16.648C136.997 16.8827 136.997 17.0747 136.997 17.224C136.997 17.352 137.008 17.5333 137.029 17.768C137.05 17.9813 137.072 18.216 137.093 18.472C137.136 18.7067 137.178 18.9413 137.221 19.176C137.285 19.3893 137.36 19.5387 137.445 19.624C137.573 19.7947 137.733 19.8907 137.925 19.912ZM161.562 33.896C161.263 33.9173 160.964 33.9173 160.666 33.896C160.388 33.8747 160.122 33.8107 159.866 33.704C159.247 33.4693 158.81 33.0853 158.554 32.552C158.319 32.1253 158.159 31.688 158.074 31.24C157.988 30.7707 157.924 30.3013 157.882 29.832C157.775 29.0213 157.658 28.2213 157.53 27.432C157.423 26.6213 157.252 25.832 157.018 25.064C156.954 24.808 156.868 24.5627 156.762 24.328C156.676 24.072 156.559 23.8373 156.41 23.624C156.367 23.5387 156.303 23.4533 156.218 23.368C156.132 23.2613 156.047 23.208 155.962 23.208C155.876 23.208 155.78 23.2613 155.674 23.368C155.567 23.4747 155.492 23.56 155.45 23.624C155.236 23.9227 155.076 24.2533 154.97 24.616C154.884 24.9573 154.82 25.3093 154.778 25.672C154.671 26.2907 154.575 26.9093 154.49 27.528C154.404 28.1467 154.308 28.7653 154.202 29.384C154.095 29.8747 153.988 30.376 153.882 30.888C153.775 31.3787 153.604 31.8587 153.37 32.328C153.263 32.4987 153.146 32.6693 153.018 32.84C152.89 33.0107 152.74 33.1493 152.57 33.256C152.42 33.3413 152.26 33.3947 152.09 33.416C151.919 33.4587 151.748 33.5013 151.578 33.544C151.151 33.5867 150.724 33.5973 150.298 33.576C149.892 33.576 149.476 33.5547 149.05 33.512C148.687 33.4693 148.335 33.4053 147.994 33.32C147.652 33.256 147.322 33.1387 147.002 32.968C146.874 32.904 146.746 32.8187 146.618 32.712C146.49 32.6053 146.404 32.4773 146.362 32.328C146.148 31.8373 146.095 31.1653 146.202 30.312C146.33 29.4373 146.522 28.5307 146.778 27.592C147.055 26.6533 147.343 25.7467 147.642 24.872C147.962 23.9973 148.218 23.3147 148.41 22.824C148.879 21.5013 149.316 20.1787 149.722 18.856C150.127 17.5333 150.575 16.2107 151.066 14.888C151.364 14.0987 151.716 13.3307 152.122 12.584C152.527 11.8373 153.039 11.1973 153.658 10.664C153.978 10.3653 154.34 10.1413 154.746 9.992C155.172 9.84267 155.599 9.736 156.026 9.672C156.623 9.58667 157.231 9.59733 157.85 9.704C158.49 9.78933 159.066 9.98133 159.578 10.28C160.047 10.5787 160.442 10.9733 160.762 11.464C161.082 11.9547 161.348 12.456 161.562 12.968C161.924 13.8427 162.191 14.7387 162.362 15.656C162.554 16.5733 162.767 17.4907 163.002 18.408C163.386 20.0293 163.77 21.64 164.154 23.24C164.559 24.84 164.932 26.4613 165.274 28.104C165.38 28.5733 165.476 29.0427 165.562 29.512C165.647 29.96 165.711 30.4293 165.754 30.92C165.775 31.176 165.754 31.4427 165.69 31.72C165.647 31.976 165.551 32.2107 165.402 32.424C165.252 32.6587 165.05 32.8507 164.794 33C164.559 33.1493 164.314 33.2773 164.058 33.384C163.674 33.5547 163.268 33.672 162.842 33.736C162.415 33.8 161.988 33.8533 161.562 33.896ZM154.65 19.624C154.628 19.7947 154.65 19.9547 154.714 20.104C154.778 20.2533 154.895 20.3173 155.066 20.296C155.428 20.2533 155.791 20.2427 156.154 20.264C156.516 20.264 156.879 20.2533 157.242 20.232C157.37 20.232 157.444 20.168 157.466 20.04C157.508 19.912 157.54 19.784 157.562 19.656C157.583 19.336 157.572 19.0267 157.53 18.728C157.487 18.408 157.434 18.0987 157.37 17.8C157.263 17.224 157.071 16.7013 156.794 16.232C156.666 16.0613 156.559 15.944 156.474 15.88C156.303 15.752 156.132 15.7733 155.962 15.944C155.812 16.0933 155.684 16.264 155.578 16.456C155.322 16.9467 155.108 17.4587 154.938 17.992C154.788 18.5253 154.692 19.0693 154.65 19.624ZM146.682 28.488L146.65 28.552C146.671 28.552 146.692 28.5413 146.714 28.52L146.682 28.488ZM174.992 32.872C174.629 33.1067 174.224 33.2347 173.776 33.256C173.349 33.2773 172.933 33.224 172.528 33.096C172.165 32.9893 171.835 32.8293 171.536 32.616C171.237 32.4027 170.96 32.168 170.704 31.912C170.256 31.4427 169.872 30.9093 169.552 30.312C169.253 29.7147 169.008 29.1067 168.816 28.488C168.539 27.6133 168.325 26.7387 168.176 25.864C168.027 24.968 167.899 24.072 167.792 23.176C167.621 21.6827 167.472 20.2 167.344 18.728C167.216 17.256 167.141 15.7733 167.12 14.28C167.12 13.9387 167.12 13.608 167.12 13.288C167.141 12.968 167.173 12.648 167.216 12.328C167.28 11.8587 167.451 11.464 167.728 11.144C168.005 10.824 168.347 10.5787 168.752 10.408C169.157 10.2373 169.595 10.1413 170.064 10.12C170.555 10.0773 171.035 10.12 171.504 10.248C171.952 10.3547 172.347 10.5573 172.688 10.856C173.093 11.1973 173.381 11.6347 173.552 12.168C173.723 12.68 173.84 13.2027 173.904 13.736C173.989 14.504 174.011 15.272 173.968 16.04C173.947 16.808 173.915 17.576 173.872 18.344C173.829 19.112 173.808 19.88 173.808 20.648C173.829 21.416 173.925 22.1733 174.096 22.92C174.16 23.1547 174.256 23.432 174.384 23.752C174.512 24.0507 174.693 24.2213 174.928 24.264C175.099 24.2853 175.259 24.2213 175.408 24.072C175.557 23.9013 175.675 23.7413 175.76 23.592C175.995 23.1653 176.165 22.696 176.272 22.184C176.4 21.672 176.507 21.1707 176.592 20.68C176.677 20.04 176.773 19.4 176.88 18.76C176.987 18.0987 177.147 17.4587 177.36 16.84C177.488 16.4773 177.669 16.1467 177.904 15.848C178.16 15.5493 178.437 15.3253 178.736 15.176C179.035 15.0053 179.344 14.9307 179.664 14.952C180.005 14.952 180.325 15.0693 180.624 15.304C180.923 15.5387 181.136 15.8267 181.264 16.168C181.392 16.5093 181.488 16.8613 181.552 17.224C181.68 17.9707 181.755 18.7387 181.776 19.528C181.797 20.296 181.893 21.0533 182.064 21.8C182.128 22.12 182.203 22.44 182.288 22.76C182.373 23.08 182.501 23.3893 182.672 23.688C182.779 23.8587 182.907 24.0293 183.056 24.2C183.227 24.3493 183.408 24.392 183.6 24.328C183.707 24.2853 183.803 24.2 183.888 24.072C183.995 23.944 184.091 23.8053 184.176 23.656C184.261 23.4853 184.325 23.3147 184.368 23.144C184.432 22.9733 184.485 22.824 184.528 22.696C184.592 22.3973 184.635 22.1093 184.656 21.832C184.699 21.5547 184.731 21.2667 184.752 20.968C184.816 19.752 184.923 18.5573 185.072 17.384C185.221 16.2107 185.36 15.016 185.488 13.8C185.531 13.352 185.595 12.904 185.68 12.456C185.787 11.9867 185.957 11.5493 186.192 11.144C186.32 10.9093 186.48 10.7067 186.672 10.536C186.885 10.344 187.12 10.1947 187.376 10.088C187.675 9.96 188.027 9.88533 188.432 9.864C188.837 9.82133 189.243 9.832 189.648 9.896C190.053 9.96 190.427 10.0667 190.768 10.216C191.131 10.3653 191.419 10.568 191.632 10.824C191.76 10.9947 191.856 11.176 191.92 11.368C192.005 11.5387 192.069 11.72 192.112 11.912C192.219 12.296 192.283 12.6907 192.304 13.096C192.347 13.48 192.379 13.8747 192.4 14.28C192.4 14.7067 192.389 15.1333 192.368 15.56C192.368 15.9867 192.347 16.4133 192.304 16.84C192.069 18.7173 191.771 20.5947 191.408 22.472C191.045 24.328 190.587 26.1627 190.032 27.976C189.797 28.7013 189.52 29.4267 189.2 30.152C188.88 30.856 188.443 31.464 187.888 31.976C187.397 32.424 186.853 32.744 186.256 32.936C185.659 33.1067 185.051 33.16 184.432 33.096C183.835 33.0533 183.248 32.8933 182.672 32.616C182.117 32.3173 181.616 31.9227 181.168 31.432C180.805 31.0267 180.485 30.5893 180.208 30.12C179.931 29.6507 179.675 29.16 179.44 28.648C179.227 28.136 179.024 27.6133 178.832 27.08C178.661 26.5467 178.48 26.024 178.288 25.512C178.117 26.408 177.904 27.304 177.648 28.2C177.392 29.096 177.061 29.96 176.656 30.792C176.443 31.1973 176.208 31.592 175.952 31.976C175.696 32.3387 175.376 32.6373 174.992 32.872Z" fill="#0A4253"></path><defs><clipPath id="clip0_273_1934"><rect width="42" height="44" fill="white"></rect></clipPath></defs></svg>