<svg xmlns="http://www.w3.org/2000/svg" width="202" height="44" viewBox="0 0 202 44" fill="none"><path d="M63.16 33.92L64.536 13.664L78.424 14.528L77.976 20.928L70.936 20.544L70.776 22.848L74.136 23.04L73.688 29.248L70.136 29.12L69.688 34.016L63.16 33.92ZM90.1138 12.32C92.1191 12.32 93.9751 12.8107 95.6818 13.792C97.3884 14.7733 98.7324 16.1173 99.7138 17.824C100.716 19.5093 101.218 21.3547 101.218 23.36C101.218 25.3653 100.716 27.2213 99.7138 28.928C98.7324 30.6133 97.3884 31.9573 95.6818 32.96C93.9751 33.9413 92.1191 34.432 90.1138 34.432H90.0818C88.0764 34.432 86.2204 33.9413 84.5138 32.96C82.8071 31.9573 81.4524 30.6133 80.4498 28.928C79.4684 27.2213 78.9778 25.3653 78.9778 23.36C78.9778 21.3547 79.4684 19.5093 80.4498 17.824C81.4524 16.1173 82.8071 14.7733 84.5138 13.792C86.2204 12.8107 88.0764 12.32 90.0818 12.32H90.1138ZM90.0178 19.424C88.9724 19.424 88.0658 19.7973 87.2978 20.544C86.5511 21.2907 86.1778 22.1973 86.1778 23.264C86.1778 24.3093 86.5511 25.2053 87.2978 25.952C88.0658 26.6987 88.9724 27.072 90.0178 27.072C91.0844 27.072 91.9911 26.6987 92.7378 25.952C93.4844 25.2053 93.8578 24.3093 93.8578 23.264C93.8578 22.1973 93.4844 21.2907 92.7378 20.544C91.9911 19.7973 91.0844 19.424 90.0178 19.424ZM112.833 12.32C114.838 12.32 116.694 12.8107 118.401 13.792C120.107 14.7733 121.451 16.1173 122.433 17.824C123.435 19.5093 123.937 21.3547 123.937 23.36C123.937 25.3653 123.435 27.2213 122.433 28.928C121.451 30.6133 120.107 31.9573 118.401 32.96C116.694 33.9413 114.838 34.432 112.833 34.432H112.801C110.795 34.432 108.939 33.9413 107.233 32.96C105.526 31.9573 104.171 30.6133 103.169 28.928C102.187 27.2213 101.697 25.3653 101.697 23.36C101.697 21.3547 102.187 19.5093 103.169 17.824C104.171 16.1173 105.526 14.7733 107.233 13.792C108.939 12.8107 110.795 12.32 112.801 12.32H112.833ZM112.737 19.424C111.691 19.424 110.785 19.7973 110.017 20.544C109.27 21.2907 108.897 22.1973 108.897 23.264C108.897 24.3093 109.27 25.2053 110.017 25.952C110.785 26.6987 111.691 27.072 112.737 27.072C113.803 27.072 114.71 26.6987 115.457 25.952C116.203 25.2053 116.577 24.3093 116.577 23.264C116.577 22.1973 116.203 21.2907 115.457 20.544C114.71 19.7973 113.803 19.424 112.737 19.424ZM128.671 20.192L124.191 20.512L124.799 14.112L138.751 13.152L140.831 19.424L135.647 20L136.607 33.568L129.823 34.112L128.671 20.192ZM151.08 12.576C152.04 12.576 152.989 12.8107 153.928 13.28C155.699 14.1333 157.043 15.4987 157.96 17.376C159.091 19.6587 159.165 21.824 158.184 23.872C156.861 26.688 153.843 28.48 149.128 29.248L149.672 33.568L143.784 34.336L141.16 14.016C141.331 13.9733 141.693 13.888 142.248 13.76C142.803 13.632 143.315 13.5253 143.784 13.44C144.275 13.3547 144.883 13.248 145.608 13.12C146.333 12.992 147.123 12.8853 147.976 12.8C148.851 12.7147 149.768 12.64 150.728 12.576C150.856 12.576 150.973 12.576 151.08 12.576ZM149.608 18.784C149.16 18.784 148.68 18.848 148.168 18.976C148.339 20.5547 148.531 22.048 148.744 23.456C149.917 23.584 150.845 23.264 151.528 22.496C152.189 21.7493 152.381 20.9707 152.104 20.16C151.805 19.2 150.973 18.7413 149.608 18.784ZM166.329 13.056L173.977 13.92L177.945 32.16L172.281 33.984L171.257 30.432L165.049 29.664L163.225 33.056L157.273 29.984L166.329 13.056ZM169.369 20.16L167.129 24.768L170.777 24.992L169.369 20.16ZM178.191 14.112L184.303 12.384L186.511 18.24L189.775 14.624L192.783 18.688L195.375 13.248L201.007 15.616L193.519 34.752L189.039 26.016L184.175 34.144L178.191 14.112Z" fill="white"></path><g clip-path="url(#clip0_251_1074)"><path d="M20.2655 14.0016C20.2655 13.5495 20.1096 13.1347 19.8502 12.8056C19.862 12.8644 19.8688 12.9261 19.8688 12.9882C19.8688 13.4999 19.4538 13.9143 18.9422 13.9143C18.4313 13.9143 18.0163 13.4995 18.0163 12.9882C18.0163 12.5624 18.3064 12.2069 18.6981 12.0995C18.5779 12.076 18.4534 12.0624 18.326 12.0624C17.2549 12.0624 16.3862 12.9304 16.3862 14.0013C16.3862 15.0718 17.2549 15.9394 18.326 15.9394C19.3974 15.9397 20.2655 15.0721 20.2655 14.0016Z" fill="white"></path><path d="M36.3876 12.9882C36.3876 13.4999 35.9734 13.9143 35.4621 13.9143C34.9505 13.9143 34.5356 13.4995 34.5356 12.9882C34.5356 12.5624 34.8253 12.2069 35.2177 12.0995C35.0968 12.076 34.9726 12.0624 34.8452 12.0624C33.7742 12.0624 32.9058 12.9304 32.9058 14.0013C32.9058 15.0718 33.7742 15.9394 34.8452 15.9394C35.916 15.9394 36.7844 15.0718 36.7844 14.0013C36.7844 13.5491 36.6288 13.1344 36.3698 12.8052C36.3816 12.8648 36.3876 12.9261 36.3876 12.9882Z" fill="white"></path><path d="M18.8159 0.0343718C17.9856 -0.629615 6.7654 8.49075 5.71609 13.1747C4.39134 19.0903 7.34946 28.9075 9.58366 29.6574C12.4012 30.6034 16.4076 23.9443 15.4385 17.6792C13.423 4.64912 19.9929 0.976506 18.8159 0.0343718Z" fill="white"></path><path d="M47.2836 13.1747C46.2346 8.49075 35.0147 -0.629615 34.1841 0.0343718C33.0071 0.976506 39.5773 4.64912 37.5615 17.6792C36.5921 23.9443 40.5988 30.6034 43.416 29.6574C45.6505 28.9075 48.6087 19.0906 47.2836 13.1747Z" fill="white"></path><path d="M50.9217 36.6745C52.1573 36.0241 52.9993 34.7275 52.9996 33.2348C52.9996 31.0891 51.2592 29.3493 49.1114 29.3493C47.1369 29.3493 44.938 31.0742 43.1916 32.8568H36.7216C35.8978 35.4863 33.4374 37.3999 30.5381 37.3999C30.4275 37.3999 30.3158 37.397 30.2042 37.3906C29.1352 38.2443 27.7587 38.7221 26.3202 38.7221C24.8813 38.7221 23.5051 38.2439 22.4362 37.3902C22.3227 37.3963 22.21 37.3995 22.0983 37.3995C19.1991 37.3995 16.739 35.486 15.9152 32.8564H9.80807C8.06125 31.0742 5.86237 29.3489 3.88827 29.3489C1.74041 29.3496 0 31.0895 0 33.2351C0.000356787 34.7279 0.842374 36.0237 2.07793 36.6745C0.842374 37.3253 0.000356787 38.6216 0 40.1143C0 42.2607 1.74041 44.0001 3.88827 44.0001C5.86237 44.0001 8.0616 42.2749 9.80843 40.4926H43.1912C44.9377 42.2749 47.1373 44.0001 49.1114 44.0001C51.2592 44.0001 52.9996 42.2607 52.9996 40.1143C52.9993 38.6219 52.1576 37.3257 50.9217 36.6745Z" fill="#D32300"></path><path d="M30.2024 22.5204C29.9865 22.1713 29.5277 22.0629 29.1777 22.2786C28.8277 22.4944 28.7192 22.953 28.9358 23.3024C29.6497 24.4575 30.5324 25.4099 31.3858 26.331C32.7959 27.8523 34.0139 29.1663 34.0139 30.9262C34.0139 32.8418 32.4544 34.4001 30.5378 34.4001C29.066 34.4001 27.8058 33.4801 27.2999 32.1864C28.5398 31.3962 30.161 29.5468 30.161 28.0359C30.161 26.755 27.3509 26.5225 26.3109 26.5225C25.2705 26.5225 22.4747 26.755 22.4747 28.0359C22.4747 29.5472 24.0963 31.3962 25.3358 32.1864C24.8299 33.4805 23.5697 34.4001 22.098 34.4001C20.1813 34.4001 18.6221 32.8418 18.6221 30.9262C18.6221 29.1663 19.8399 27.8523 21.2499 26.331C22.1037 25.4099 22.9864 24.4575 23.6999 23.3024C23.9162 22.953 23.808 22.4944 23.458 22.2786C23.1077 22.0625 22.6492 22.1709 22.4333 22.5204C21.7954 23.5521 20.9627 24.451 20.1574 25.3201C18.6703 26.9241 17.1329 28.5833 17.1329 30.9262C17.1329 33.662 19.36 35.8875 22.0976 35.8875C22.388 35.8875 22.6717 35.8604 22.9489 35.8123C23.7549 36.6663 24.9651 37.2098 26.3198 37.2098C27.6738 37.2098 28.8844 36.6663 29.6907 35.8126C29.9665 35.8604 30.2488 35.8872 30.5378 35.8872C33.2754 35.8872 35.5025 33.6616 35.5025 30.9258C35.5025 28.5829 33.9651 26.9237 32.478 25.3197C31.6731 24.451 30.8403 23.5524 30.2024 22.5204Z" fill="white"></path></g><defs><clipPath id="clip0_251_1074"><rect width="53" height="44" fill="white"></rect></clipPath></defs></svg>