<svg xmlns="http://www.w3.org/2000/svg" width="202" height="44" viewBox="0 0 202 44" fill="none"><path d="M63.16 33.92L64.536 13.664L78.424 14.528L77.976 20.928L70.936 20.544L70.776 22.848L74.136 23.04L73.688 29.248L70.136 29.12L69.688 34.016L63.16 33.92ZM90.1138 12.32C92.1191 12.32 93.9751 12.8107 95.6818 13.792C97.3884 14.7733 98.7324 16.1173 99.7138 17.824C100.716 19.5093 101.218 21.3547 101.218 23.36C101.218 25.3653 100.716 27.2213 99.7138 28.928C98.7324 30.6133 97.3884 31.9573 95.6818 32.96C93.9751 33.9413 92.1191 34.432 90.1138 34.432H90.0818C88.0764 34.432 86.2204 33.9413 84.5138 32.96C82.8071 31.9573 81.4524 30.6133 80.4498 28.928C79.4684 27.2213 78.9778 25.3653 78.9778 23.36C78.9778 21.3547 79.4684 19.5093 80.4498 17.824C81.4524 16.1173 82.8071 14.7733 84.5138 13.792C86.2204 12.8107 88.0764 12.32 90.0818 12.32H90.1138ZM90.0178 19.424C88.9724 19.424 88.0658 19.7973 87.2978 20.544C86.5511 21.2907 86.1778 22.1973 86.1778 23.264C86.1778 24.3093 86.5511 25.2053 87.2978 25.952C88.0658 26.6987 88.9724 27.072 90.0178 27.072C91.0844 27.072 91.9911 26.6987 92.7378 25.952C93.4844 25.2053 93.8578 24.3093 93.8578 23.264C93.8578 22.1973 93.4844 21.2907 92.7378 20.544C91.9911 19.7973 91.0844 19.424 90.0178 19.424ZM112.833 12.32C114.838 12.32 116.694 12.8107 118.401 13.792C120.107 14.7733 121.451 16.1173 122.433 17.824C123.435 19.5093 123.937 21.3547 123.937 23.36C123.937 25.3653 123.435 27.2213 122.433 28.928C121.451 30.6133 120.107 31.9573 118.401 32.96C116.694 33.9413 114.838 34.432 112.833 34.432H112.801C110.795 34.432 108.939 33.9413 107.233 32.96C105.526 31.9573 104.171 30.6133 103.169 28.928C102.187 27.2213 101.697 25.3653 101.697 23.36C101.697 21.3547 102.187 19.5093 103.169 17.824C104.171 16.1173 105.526 14.7733 107.233 13.792C108.939 12.8107 110.795 12.32 112.801 12.32H112.833ZM112.737 19.424C111.691 19.424 110.785 19.7973 110.017 20.544C109.27 21.2907 108.897 22.1973 108.897 23.264C108.897 24.3093 109.27 25.2053 110.017 25.952C110.785 26.6987 111.691 27.072 112.737 27.072C113.803 27.072 114.71 26.6987 115.457 25.952C116.203 25.2053 116.577 24.3093 116.577 23.264C116.577 22.1973 116.203 21.2907 115.457 20.544C114.71 19.7973 113.803 19.424 112.737 19.424ZM128.671 20.192L124.191 20.512L124.799 14.112L138.751 13.152L140.831 19.424L135.647 20L136.607 33.568L129.823 34.112L128.671 20.192ZM151.08 12.576C152.04 12.576 152.989 12.8107 153.928 13.28C155.699 14.1333 157.043 15.4987 157.96 17.376C159.091 19.6587 159.165 21.824 158.184 23.872C156.861 26.688 153.843 28.48 149.128 29.248L149.672 33.568L143.784 34.336L141.16 14.016C141.331 13.9733 141.693 13.888 142.248 13.76C142.803 13.632 143.315 13.5253 143.784 13.44C144.275 13.3547 144.883 13.248 145.608 13.12C146.333 12.992 147.123 12.8853 147.976 12.8C148.851 12.7147 149.768 12.64 150.728 12.576C150.856 12.576 150.973 12.576 151.08 12.576ZM149.608 18.784C149.16 18.784 148.68 18.848 148.168 18.976C148.339 20.5547 148.531 22.048 148.744 23.456C149.917 23.584 150.845 23.264 151.528 22.496C152.189 21.7493 152.381 20.9707 152.104 20.16C151.805 19.2 150.973 18.7413 149.608 18.784ZM166.329 13.056L173.977 13.92L177.945 32.16L172.281 33.984L171.257 30.432L165.049 29.664L163.225 33.056L157.273 29.984L166.329 13.056ZM169.369 20.16L167.129 24.768L170.777 24.992L169.369 20.16ZM178.191 14.112L184.303 12.384L186.511 18.24L189.775 14.624L192.783 18.688L195.375 13.248L201.007 15.616L193.519 34.752L189.039 26.016L184.175 34.144L178.191 14.112Z" fill="#0A4253"></path><g clip-path="url(#clip0_2001_2608)"><path d="M20.2655 14.0015C20.2655 13.5493 20.1096 13.1346 19.8502 12.8055C19.862 12.8643 19.8688 12.926 19.8688 12.9881C19.8688 13.4998 19.4538 13.9141 18.9422 13.9141C18.4313 13.9141 18.0163 13.4994 18.0163 12.9881C18.0163 12.5623 18.3064 12.2067 18.6981 12.0994C18.5779 12.0759 18.4534 12.0623 18.326 12.0623C17.2549 12.0623 16.3862 12.9303 16.3862 14.0012C16.3862 15.0717 17.2549 15.9393 18.326 15.9393C19.3974 15.9396 20.2655 15.072 20.2655 14.0015Z" fill="#0A4253"></path><path d="M36.3876 12.9881C36.3876 13.4998 35.9734 13.9141 35.4621 13.9141C34.9505 13.9141 34.5356 13.4994 34.5356 12.9881C34.5356 12.5623 34.8253 12.2067 35.2177 12.0994C35.0968 12.0759 34.9726 12.0623 34.8452 12.0623C33.7742 12.0623 32.9058 12.9303 32.9058 14.0012C32.9058 15.0717 33.7742 15.9393 34.8452 15.9393C35.916 15.9393 36.7844 15.0717 36.7844 14.0012C36.7844 13.549 36.6288 13.1343 36.3698 12.8051C36.3816 12.8647 36.3876 12.926 36.3876 12.9881Z" fill="#0A4253"></path><path d="M18.8159 0.0342497C17.9856 -0.629737 6.7654 8.49063 5.71609 13.1746C4.39134 19.0902 7.34946 28.9073 9.58366 29.6573C12.4012 30.6033 16.4076 23.9442 15.4385 17.6791C13.423 4.64899 19.9929 0.976383 18.8159 0.0342497Z" fill="#0A4253"></path><path d="M47.2836 13.1746C46.2346 8.49063 35.0147 -0.629737 34.1841 0.0342497C33.0071 0.976383 39.5773 4.64899 37.5615 17.6791C36.5921 23.9442 40.5988 30.6033 43.416 29.6573C45.6505 28.9073 48.6087 19.0905 47.2836 13.1746Z" fill="#0A4253"></path><path d="M50.9217 36.6744C52.1573 36.024 52.9993 34.7274 52.9996 33.2347C52.9996 31.089 51.2592 29.3492 49.1114 29.3492C47.1369 29.3492 44.938 31.074 43.1916 32.8567H36.7216C35.8978 35.4862 33.4374 37.3997 30.5381 37.3997C30.4275 37.3997 30.3158 37.3969 30.2042 37.3905C29.1352 38.2442 27.7587 38.722 26.3202 38.722C24.8813 38.722 23.5051 38.2438 22.4362 37.3901C22.3227 37.3962 22.21 37.3994 22.0983 37.3994C19.1991 37.3994 16.739 35.4859 15.9152 32.8563H9.80807C8.06125 31.074 5.86237 29.3488 3.88827 29.3488C1.74041 29.3495 0 31.0894 0 33.235C0.000356787 34.7277 0.842374 36.0236 2.07793 36.6744C0.842374 37.3252 0.000356787 38.6214 0 40.1142C0 42.2605 1.74041 44 3.88827 44C5.86237 44 8.0616 42.2748 9.80843 40.4925H43.1912C44.9377 42.2748 47.1373 44 49.1114 44C51.2592 44 52.9996 42.2605 52.9996 40.1142C52.9993 38.6218 52.1576 37.3256 50.9217 36.6744Z" fill="#D32300"></path><path d="M30.2024 22.5203C29.9865 22.1712 29.5277 22.0628 29.1777 22.2785C28.8277 22.4943 28.7192 22.9528 28.9358 23.3023C29.6497 24.4573 30.5324 25.4098 31.3858 26.3309C32.7959 27.8522 34.0139 29.1662 34.0139 30.926C34.0139 32.8417 32.4544 34.4 30.5378 34.4C29.066 34.4 27.8058 33.48 27.2999 32.1863C28.5398 31.396 30.161 29.5467 30.161 28.0358C30.161 26.7549 27.3509 26.5224 26.3109 26.5224C25.2705 26.5224 22.4747 26.7549 22.4747 28.0358C22.4747 29.5471 24.0963 31.396 25.3358 32.1863C24.8299 33.4804 23.5697 34.4 22.098 34.4C20.1813 34.4 18.6221 32.8417 18.6221 30.926C18.6221 29.1662 19.8399 27.8522 21.2499 26.3309C22.1037 25.4098 22.9864 24.4573 23.6999 23.3023C23.9162 22.9528 23.808 22.4943 23.458 22.2785C23.1077 22.0624 22.6492 22.1708 22.4333 22.5203C21.7954 23.5519 20.9627 24.4509 20.1574 25.3199C18.6703 26.9239 17.1329 28.5832 17.1329 30.926C17.1329 33.6619 19.36 35.8874 22.0976 35.8874C22.388 35.8874 22.6717 35.8603 22.9489 35.8122C23.7549 36.6662 24.9651 37.2097 26.3198 37.2097C27.6738 37.2097 28.8844 36.6662 29.6907 35.8125C29.9665 35.8603 30.2488 35.887 30.5378 35.887C33.2754 35.887 35.5025 33.6615 35.5025 30.9257C35.5025 28.5828 33.9651 26.9236 32.478 25.3196C31.6731 24.4509 30.8403 23.5523 30.2024 22.5203Z" fill="#0A4253"></path></g><defs><clipPath id="clip0_2001_2608"><rect width="53" height="44" fill="white"></rect></clipPath></defs></svg>