<svg xmlns="http://www.w3.org/2000/svg" width="20" height="20" viewBox="0 0 20 20" fill="none"><path d="M17.6268 3.83688C15.3805 1.535 11.8805 2.26188 9.99988 5.58625C8.11926 2.26125 4.61926 1.535 2.37301 3.83688C0.198631 6.06438 0.425507 14.1069 9.99988 18.75C19.5743 14.1069 19.8011 6.06438 17.6268 3.83688ZM10.3674 7.87875C10.5418 7.20188 11.078 6.76375 11.5655 6.9C12.053 7.03625 12.3068 7.695 12.133 8.37125C11.9593 9.0475 11.4224 9.48625 10.9349 9.35C10.4474 9.21375 10.193 8.55563 10.3674 7.87875ZM8.43426 6.9C8.92176 6.76375 9.45801 7.2025 9.63238 7.87875C9.80676 8.55563 9.55238 9.21438 9.06488 9.35C8.57738 9.48563 8.04113 9.0475 7.86676 8.37125C7.69238 7.695 7.94738 7.03563 8.43426 6.9ZM5.99238 10.2463C5.81801 9.56938 6.07238 8.91063 6.55988 8.775C7.04738 8.63938 7.58363 9.0775 7.75801 9.75375C7.93238 10.4306 7.67801 11.0894 7.19051 11.225C6.70301 11.3606 6.16613 10.9231 5.99238 10.2463ZM11.6668 14.375C11.2305 14.375 10.7936 14.135 10.4774 13.9056C10.188 13.6969 9.81238 13.6969 9.52301 13.9056C9.20613 14.135 8.76988 14.375 8.33301 14.375C7.85488 14.375 7.49988 14.0144 7.49988 13.5C7.49988 11.75 8.81176 10 9.99988 10C11.188 10 12.4999 11.75 12.4999 13.5C12.4999 14.0144 12.1449 14.375 11.6668 14.375ZM14.0074 10.2463C13.833 10.9231 13.2968 11.3613 12.8093 11.225C12.3218 11.0888 12.068 10.43 12.2418 9.75375C12.4161 9.07688 12.9524 8.63875 13.4399 8.775C13.9274 8.91125 14.1818 9.56938 14.0074 10.2463Z" fill="white"></path></svg>